# xmcd
#
# Track frame offsets:
#	150
#	13468
#	28703
#	41162
#	56196
#	71556
#	87384
#	100591
#	113148
#	130199
#	149122
#	163441
#	174996
#	188778
#	201117
#	217677
#	235733
#	247003
#
# Disc length: 3461 seconds
#
# Revision: 2
# Processed by: cddbd v1.5.2PL0 Copyright (c) Steve Scherf et al.
# Submitted via: EZCDAudioConverter 4.0.5.1
#
DISCID=0d0d8312
DTITLE=The Highwaymen - The Essential Highwaymen
DYEAR=2010
DGENRE=Country
TTITLE0=Good Hearted Woman
TTITLE1=A Backstage Pass
TTITLE2=How Do You Feel About Foolin' Around
TTITLE3=Luckenback, Texas (Back to Basics of Love)
TTITLE4=The Night Hank Williams Came to Town
TTITLE5=If You Don't Like Hank Williams
TTITLE6=Are You Sure Hank Done It This Way
TTITLE7=Big River
TTITLE8=Deportee (Plane Wreck at Los Gatos)
TTITLE9=Me and Bobby McGee
TTITLE10=The Last Cowboy Song
TTITLE11=Mammas Don't Let Your Babies Grow Up to Be Cowboys
TTITLE12=Even Cowgirls Get the Blues
TTITLE13=Nowhere Road
TTITLE14=It Is What It Is
TTITLE15=Living Legend
TTITLE16=Love Is the Way
TTITLE17=Live Forever
EXTD=
EXTT0=
EXTT1=
EXTT2=
EXTT3=
EXTT4=
EXTT5=
EXTT6=
EXTT7=
EXTT8=
EXTT9=
EXTT10=
EXTT11=
EXTT12=
EXTT13=
EXTT14=
EXTT15=
EXTT16=
EXTT17=
PLAYORDER=
